<svg xmlns="http://www.w3.org/2000/svg" width="160" height="160" viewBox="0 0 160 160" role="img" aria-labelledby="t"><title id="t">Premium Quran icon</title><defs><linearGradient id="g" x1="0" y1="0" x2="1" y2="1"><stop stop-color="oklch(70% .16 157)"/><stop offset=".48" stop-color="oklch(54% .15 157)"/><stop offset="1" stop-color="oklch(36% .11 157)"/></linearGradient><linearGradient id="gold" x1="0" y1="0" x2="1" y2="1"><stop stop-color="oklch(91% .10 88)"/><stop offset=".38" stop-color="oklch(76% .14 78)"/><stop offset="1" stop-color="oklch(45% .10 64)"/></linearGradient><filter id="s" x="-30%" y="-30%" width="160%" height="180%"><feDropShadow dx="0" dy="9" stdDeviation="7" flood-color="oklch(23% .05 155)" flood-opacity=".28"/></filter></defs><g transform="translate(16 8)" filter="url(#s)"><ellipse cx="64" cy="137" rx="58" ry="9" fill="oklch(32% .05 155)" opacity=".13"/><path d="M19 24h77a13 13 0 0 1 13 13v91H31a12 12 0 0 1-12-12Z" fill="oklch(38% .12 157)"/><path d="M28 21h67a10 10 0 0 1 10 10v91H35a9 9 0 0 1-9-9V24Z" fill="url(#g)" stroke="oklch(32% .10 157)" stroke-width="2"/><path d="M39 22v99" stroke="url(#gold)" stroke-width="3"/><path d="M66 43 84 60 66 77 48 60Z" fill="none" stroke="url(#gold)" stroke-width="3.5"/><circle cx="66" cy="60" r="6" fill="url(#gold)"/><circle cx="66" cy="60" r="2.2" fill="oklch(44% .10 157)"/><path d="M49 92h35M46 101h41" stroke="oklch(84% .10 85)" stroke-width="2.3" stroke-linecap="round"/><path d="M28 111c4 8 10 11 19 11h58" fill="none" stroke="oklch(89% .04 88)" stroke-width="5" stroke-linecap="round"/><path d="M48 31h42" stroke="oklch(90% .08 157)" stroke-width="3" stroke-linecap="round" opacity=".34"/></g></svg>